<svg width="431" height="404" viewBox="0 0 431 404" fill="none" xmlns="http://www.w3.org/2000/svg">
<path d="M215.5 96.5182L216.619 386.5M215.5 96.5182C215.5 75.5613 207.156 55.4627 192.303 40.6439C177.45 25.8251 157.305 17.5 136.3 17.5H37.3C32.0487 17.5 27.0125 19.5813 23.2993 23.286C19.5861 26.9907 17.5 32.0153 17.5 37.2545V294.064C17.5 299.303 19.5861 304.328 23.2993 308.032C27.0125 311.737 32.0487 313.818 37.3 313.818H156.1C171.854 313.818 186.963 320.062 198.102 331.176C209.242 342.29 215.5 357.364 215.5 373.082C215.5 357.364 221.758 342.29 232.898 331.176C244.038 320.062 259.146 313.818 274.9 313.818H393.7C398.951 313.818 403.988 311.737 407.701 308.032C411.414 304.328 413.5 299.303 413.5 294.064V37.2545C413.5 32.0153 411.414 26.9907 407.701 23.286C403.988 19.5813 398.951 17.5 393.7 17.5H294.7C273.695 17.5 253.55 25.8251 238.697 40.6439C223.844 55.4627 215.5 75.5613 215.5 96.5182Z" stroke="#0D1C3F" stroke-width="35" stroke-linecap="round" stroke-linejoin="round"/>
</svg>
